# xmcd
#
# Track frame offsets:
#	150
#	21262
#	40058
#	65684
#	89736
#	110736
#	157499
#	182100
#	199058
#	236513
#
# Disc length: 3488 seconds
#
# Revision: 1
# Processed by: cddbd v1.5.2PL0 Copyright (c) Steve Scherf et al.
# Submitted via: audiograbber 1.83.01
#
DISCID=930d9e0a
DTITLE=Grateful Dead - 70-02-07 Fillmore West, San Francisco CA
DYEAR=1900
DGENRE=
TTITLE0=Green Green Grass Of Home
TTITLE1=Saw Mill
TTITLE2=Seasons Of My Heart
TTITLE3=China Cat Sunflower
TTITLE4=I Know You Rider
TTITLE5=High Time
TTITLE6=Big Boss Man
TTITLE7=Me and My Uncle
TTITLE8=Hard To handle
TTITLE9=Cold Rain and Snow
EXTD=
EXTT0=
EXTT1=
EXTT2=
EXTT3=
EXTT4=
EXTT5=
EXTT6=
EXTT7=
EXTT8=
EXTT9=
PLAYORDER=
